#!OML:ASF H:\Pregnant\Project 1\Capture day 1\Session 1\femalepreg.ASF
:FULLY-SPECIFIED
:DEGREES
1849
root 5.13863 10.1381 19.2758 -107.746 0.867396 -174.885
lowerback 9.19174 3.08389 -8.6647
upperback 0.755338 3.72882 5.53694
thorax -5.30418 2.23246 10.364
lowerneck -54.1208 0.530636 1.99137
upperneck 6.40439 3.04412 -0.477532
head 8.79663 2.74436 0.307105
rclavicle -5.56597e-015 -5.26779e-015
rhumerus 51.389 27.3303 -62.8805
rradius 25.1861
rwrist 24.0398
rhand -47.0463 355.187
rfingers 7.12502
rthumb -19.7518 -33.8299
lclavicle -5.56597e-015 -5.26779e-015
lhumerus 49.5287 -19.861 57.5883
lradius 24.8322
lwrist 17.8535
lhand -49.0836 -41.0971
lfingers 7.12502
lthumb -21.7093 -12.2944
rfemur -152.89 13.5277 30.1977
rtibia 61.3576
rfoot 21.4571 9.61783
rtoes -5.00743
lfemur -13.2986 -15.2736 -9.71728
ltibia 1.59028e-014
lfoot -29.3209 1.07257
ltoes -17.0449
1850
root 5.13819 10.1583 19.298 -107.649 0.814637 -174.944
lowerback 9.23967 3.06186 -8.6504
upperback 0.822496 3.70541 5.58408
thorax -5.25536 2.21783 10.4117
lowerneck -54.0884 0.498005 1.93698
upperneck 6.52743 2.98679 -0.410931
head 8.84014 2.70978 0.33039
rclavicle 4.45278e-014 5.40694e-014
rhumerus 51.8183 27.2134 -62.6524
rradius 25.1833
rwrist 24.0632
rhand -47.013 355.141
rfingers 7.12502
rthumb -19.7198 -33.8789
lclavicle 4.45278e-014 5.40694e-014
lhumerus 49.7821 -19.6286 57.4636
lradius 24.8544
lwrist 17.8913
lhand -49.0432 -40.8854
lfingers 7.12502
lthumb -21.6705 -12.0782
rfemur -152.764 13.4008 30.0844
rtibia 60.8968
rfoot 21.6551 9.5891
rtoes -5.12338
lfemur -13.5569 -15.314 -9.62295
ltibia 4.13472e-014
lfoot -29.325 1.18614
ltoes -16.9929
1851
root 5.13755 10.1783 19.3203 -107.547 0.752976 -174.996
lowerback 9.27576 3.03818 -8.63179
upperback 0.893879 3.68207 5.63725
thorax -5.19545 2.20272 10.4641
lowerneck -54.0651 0.467614 1.88003
upperneck 6.66409 2.9312 -0.339728
head 8.88949 2.67585 0.356358
rclavicle -3.97569e-015 -2.61402e-014
rhumerus 52.2526 27.0888 -62.4277
rradius 25.1783
rwrist 24.088
rhand -46.9536 355.115
rfingers 7.12502
rthumb -19.6627 -33.9107
lclavicle -3.97569e-015 -2.61402e-014
lhumerus 50.0355 -19.397 57.3186
lradius 24.896
lwrist 17.9352
lhand -49.0146 -40.6714
lfingers 7.12502
lthumb -21.6431 -11.861
rfemur -152.639 13.2803 29.9862
rtibia 60.4331
rfoot 21.8546 9.56393
rtoes -5.23358
lfemur -13.8132 -15.3486 -9.51254
ltibia 4.77083e-014
lfoot -29.3431 1.22966
ltoes -16.6626
1852
root 5.13649 10.1982 19.3425 -107.442 0.683048 -175.041
lowerback 9.30063 3.01319 -8.60706
upperback 0.970196 3.65942 5.69639
thorax -5.12406 2.18738 10.5199
lowerneck -54.0593 0.444675 1.82652
upperneck 6.82321 2.88141 -0.275462
head 8.94889 2.64236 0.380394
rclavicle -5.68524e-014 -7.26558e-014
rhumerus 52.6875 26.9567 -62.2074
rradius 25.174
rwrist 24.1093
rhand -46.8751 355.121
rfingers 7.12502
rthumb -19.5872 -33.9118
lclavicle -5.68524e-014 -7.26558e-014
lhumerus 50.2882 -19.1633 57.1609
lradius 24.9536
lwrist 17.9836
lhand -48.9954 -40.4649
lfingers 7.12502
lthumb -21.6246 -11.6524
rfemur -152.512 13.1662 29.9055
rtibia 59.9674
rfoot 22.0584 9.54188
rtoes -5.32613
lfemur -14.0648 -15.3773 -9.38768
ltibia 4.13472e-014
lfoot -29.3771 1.18944
ltoes -16.003
1853
root 5.135 10.2179 19.3643 -107.339 0.600956 -175.079
lowerback 9.32134 2.98691 -8.57321
upperback 1.05066 3.63764 5.76351
thorax -5.04603 2.17225 10.5793
lowerneck -54.06 0.428401 1.77656
upperneck 6.99747 2.83657 -0.218832
head 9.01486 2.60893 0.40185
rclavicle 7.95139e-016 -7.65321e-015
rhumerus 53.1174 26.8266 -61.9848
rradius 25.1757
rwrist 24.1047
rhand -46.7849 355.148
rfingers 7.12502
rthumb -19.5005 -33.8942
lclavicle 7.95139e-016 -7.65321e-015
lhumerus 50.5345 -18.9288 56.9977
lradius 25.0255
lwrist 18.0478
lhand -48.9849 -40.2919
lfingers 7.12502
lthumb -21.6145 -11.4782
rfemur -152.38 13.0554 29.8451
rtibia 59.5026
rfoot 22.2621 9.52121
rtoes -5.40743
lfemur -14.3117 -15.403 -9.24856
ltibia 3.49861e-014
lfoot -29.42 1.11259
ltoes -15.1869
1854
root 5.13315 10.2377 19.3861 -107.238 0.512516 -175.111
lowerback 9.34075 2.96027 -8.53942
upperback 1.13496 3.61682 5.83952
thorax -4.96397 2.15775 10.6487
lowerneck -54.0556 0.414108 1.72087
upperneck 7.17725 2.79644 -0.16512
head 9.08283 2.57613 0.423639
rclavicle 2.42517e-014 1.27222e-014
rhumerus 53.5323 26.6908 -61.778
rradius 25.1882
rwrist 24.1108
rhand -46.6953 355.204
rfingers 7.12502
rthumb -19.4144 -33.8464
lclavicle 2.42517e-014 1.27222e-014
lhumerus 50.7728 -18.6906 56.8335
lradius 25.1097
lwrist 18.1416
lhand -48.9782 -40.1739
lfingers 7.12502
lthumb -21.6081 -11.3595
rfemur -152.242 12.9481 29.7976
rtibia 59.0355
rfoot 22.467 9.50283
rtoes -5.49054
lfemur -14.5575 -15.4253 -9.1041
ltibia 2.54444e-014
lfoot -29.4626 1.05581
ltoes -14.4319
1855
root 5.13103 10.2573 19.408 -107.142 0.429801 -175.142
lowerback 9.36442 2.93408 -8.52195
upperback 1.22298 3.59556 5.92277
thorax -4.88164 2.14355 10.7362
lowerneck -54.0345 0.402513 1.65997
upperneck 7.35397 2.76226 -0.116864
head 9.14877 2.54427 0.444677
rclavicle 2.94201e-014 1.98785e-015
rhumerus 53.9512 26.5702 -61.548
rradius 25.2133
rwrist 24.0749
rhand -46.6388 355.267
rfingers 7.12502
rthumb -19.36 -33.7896
lclavicle 2.94201e-014 1.98785e-015
lhumerus 50.996 -18.4452 56.677
lradius 25.206
lwrist 18.2713
lhand -48.9734 -40.1153
lfingers 7.12502
lthumb -21.6034 -11.3003
rfemur -152.094 12.8442 29.7519
rtibia 58.5634
rfoot 22.6744 9.48967
rtoes -5.57839
lfemur -14.803 -15.4461 -8.97208
ltibia -1.59028e-014
lfoot -29.4992 1.06815
ltoes -13.9239
1856
root 5.12872 10.2767 19.4303 -107.051 0.359981 -175.174
lowerback 9.39132 2.90883 -8.52799
upperback 1.3129 3.5733 6.01047
thorax -4.8005 2.12944 10.843
lowerneck -54.0003 0.391938 1.59153
upperneck 7.52823 2.73349 -0.0714777
head 9.21302 2.51361 0.466294
rclavicle -2.94201e-014 -2.8625e-014
rhumerus 54.372 26.463 -61.2941
rradius 25.2516
rwrist 24.0158
rhand -46.5719 355.301
rfingers 7.12502
rthumb -19.2957 -33.7616
lclavicle -2.94201e-014 -2.8625e-014
lhumerus 51.2069 -18.1951 56.5245
lradius 25.3112
lwrist 18.4378
lhand -48.9706 -40.1297
lfingers 7.12502
lthumb -21.6008 -11.3145
rfemur -151.941 12.7409 29.6959
rtibia 58.0835
rfoot 22.8875 9.4788
rtoes -5.67225
lfemur -15.0516 -15.4667 -8.86151
ltibia 4.13472e-014
lfoot -29.5272 1.17273
ltoes -13.7663
1857
root 5.12618 10.296 19.4529 -106.962 0.304757 -175.207
lowerback 9.42148 2.88464 -8.55764
upperback 1.40395 3.55011 6.10197
thorax -4.72127 2.11542 10.9687
lowerneck -53.9575 0.383424 1.51735
upperneck 7.70216 2.71105 -0.0317332
head 9.27675 2.48423 0.487361
rclavicle -2.3059e-014 -1.60022e-014
rhumerus 54.7881 26.3605 -61.0346
rradius 25.3014
rwrist 23.9557
rhand -46.5136 355.34
rfingers 7.12502
rthumb -19.2396 -33.7282
lclavicle -2.3059e-014 -1.60022e-014
lhumerus 51.4041 -17.9375 56.3847
lradius 25.4229
lwrist 18.6203
lhand -48.9799 -40.1979
lfingers 7.12502
lthumb -21.6097 -11.3837
rfemur -151.782 12.6378 29.6265
rtibia 57.5941
rfoot 23.1067 9.46975
rtoes -5.77239
lfemur -15.3042 -15.4865 -8.77368
ltibia 3.49861e-014
lfoot -29.5453 1.37321
ltoes -13.9741
1858
root 5.12331 10.3147 19.4759 -106.874 0.262276 -175.241
lowerback 9.45284 2.86021 -8.60881
upperback 1.4957 3.52464 6.19804
thorax -4.64277 2.10071 11.1132
lowerneck -53.915 0.377149 1.43694
upperneck 7.88154 2.69502 0.0049664
head 9.34272 2.45653 0.509182
rclavicle -1.27222e-014 -7.40473e-014
rhumerus 55.2123 26.2675 -60.7497
rradius 25.3573
rwrist 23.908
rhand -46.4282 355.366
rfingers 7.12502
rthumb -19.1575 -33.7101
lclavicle -1.27222e-014 -7.40473e-014
lhumerus 51.5891 -17.6666 56.2624
lradius 25.5348
lwrist 18.8046
lhand -48.9947 -40.2882
lfingers 7.12502
lthumb -21.6239 -11.4756
rfemur -151.622 12.535 29.5462
rtibia 57.0961
rfoot 23.3371 9.4585
rtoes -5.85501
lfemur -15.5558 -15.5049 -8.70374
ltibia 4.77083e-014
lfoot -29.5615 1.60959
ltoes -14.3143
